<svg width="30" height="28" viewBox="0 0 30 28" fill="none" xmlns="http://www.w3.org/2000/svg">
<g id="cart-shopping-solid" clip-path="url(#clip0_2_17)">
<path id="Vector" d="M0 1.3125C0 0.585156 0.557292 0 1.25 0H3.61979C4.76562 0 5.78125 0.7 6.25521 1.75H27.6615C29.0312 1.75 30.0312 3.11719 29.6719 4.50625L27.5365 12.8352C27.0938 14.5523 25.6094 15.75 23.9167 15.75H8.89062L9.17188 17.3086C9.28646 17.9266 9.80208 18.375 10.401 18.375H25.4167C26.1094 18.375 26.6667 18.9602 26.6667 19.6875C26.6667 20.4148 26.1094 21 25.4167 21H10.401C8.59896 21 7.05208 19.6547 6.71875 17.8008L4.03125 2.98047C3.99479 2.77266 3.82292 2.625 3.61979 2.625H1.25C0.557292 2.625 0 2.03984 0 1.3125ZM6.66667 25.375C6.66667 25.0303 6.73133 24.6889 6.85697 24.3705C6.9826 24.052 7.16675 23.7626 7.3989 23.5188C7.63105 23.2751 7.90664 23.0817 8.20996 22.9498C8.51327 22.8179 8.83836 22.75 9.16667 22.75C9.49497 22.75 9.82006 22.8179 10.1234 22.9498C10.4267 23.0817 10.7023 23.2751 10.9344 23.5188C11.1666 23.7626 11.3507 24.052 11.4764 24.3705C11.602 24.6889 11.6667 25.0303 11.6667 25.375C11.6667 25.7197 11.602 26.0611 11.4764 26.3795C11.3507 26.698 11.1666 26.9874 10.9344 27.2312C10.7023 27.4749 10.4267 27.6683 10.1234 27.8002C9.82006 27.9321 9.49497 28 9.16667 28C8.83836 28 8.51327 27.9321 8.20996 27.8002C7.90664 27.6683 7.63105 27.4749 7.3989 27.2312C7.16675 26.9874 6.9826 26.698 6.85697 26.3795C6.73133 26.0611 6.66667 25.7197 6.66667 25.375ZM24.1667 22.75C24.8297 22.75 25.4656 23.0266 25.9344 23.5188C26.4033 24.0111 26.6667 24.6788 26.6667 25.375C26.6667 26.0712 26.4033 26.7389 25.9344 27.2312C25.4656 27.7234 24.8297 28 24.1667 28C23.5036 28 22.8677 27.7234 22.3989 27.2312C21.9301 26.7389 21.6667 26.0712 21.6667 25.375C21.6667 24.6788 21.9301 24.0111 22.3989 23.5188C22.8677 23.0266 23.5036 22.75 24.1667 22.75Z" fill="black"/>
</g>
<defs>
<clipPath id="clip0_2_17">
<rect width="30" height="28" fill="white"/>
</clipPath>
</defs>
</svg>
