<svg width="39" height="39" viewBox="0 0 39 39" fill="none" xmlns="http://www.w3.org/2000/svg">
<g id="ep:arrow-up-bold">
<path id="Vector" d="M34.1464 25.923C33.708 26.3517 33.1172 26.5887 32.5041 26.5819C31.8909 26.5751 31.3056 26.3251 30.8768 25.8867L19.5576 14.3135L7.98442 25.6327C7.54363 26.049 6.95694 26.2756 6.3507 26.2636C5.74447 26.2516 5.1672 26.002 4.74323 25.5685C4.31926 25.135 4.08251 24.5524 4.08397 23.946C4.08543 23.3397 4.32498 22.7581 4.75104 22.3267L17.9772 9.39087C18.4157 8.96218 19.0064 8.72518 19.6196 8.73199C20.2327 8.7388 20.8181 8.98885 21.2469 9.42716L34.1827 22.6534C34.6114 23.0918 34.8484 23.6825 34.8416 24.2957C34.8348 24.9089 34.5848 25.4942 34.1464 25.923Z" fill="black"/>
</g>
</svg>
