<svg width="45" height="45" viewBox="0 0 45 45" fill="none" xmlns="http://www.w3.org/2000/svg">
<g id="uil:vk">
<path id="Vector" d="M28.2619 3.75H16.7569C6.24938 3.75 3.75 6.24938 3.75 16.7381V28.2431C3.75 38.7487 6.23062 41.25 16.7381 41.25H28.2431C38.7487 41.25 41.25 38.7694 41.25 28.2619V16.7569C41.25 6.24938 38.7694 3.75 28.2619 3.75ZM34.0238 30.5063H31.2881C30.2531 30.5063 29.9419 29.6681 28.0856 27.8119C26.4656 26.25 25.7812 26.055 25.3706 26.055C24.8044 26.055 24.6488 26.2106 24.6488 26.9925V29.4525C24.6488 30.1181 24.4331 30.5081 22.695 30.5081C21.0081 30.3948 19.3724 29.8823 17.9224 29.0129C16.4724 28.1435 15.2497 26.942 14.355 25.5075C12.2309 22.8637 10.753 19.7609 10.0388 16.4456C10.0388 16.035 10.1944 15.6637 10.9763 15.6637H13.71C14.4131 15.6637 14.6662 15.9769 14.9419 16.6988C16.2694 20.6063 18.5344 24.0037 19.4531 24.0037C19.8056 24.0037 19.9594 23.8481 19.9594 22.9688V18.945C19.8431 17.1094 18.8681 16.9537 18.8681 16.29C18.8807 16.1149 18.9609 15.9516 19.0918 15.8347C19.2227 15.7178 19.394 15.6565 19.5694 15.6637H23.8669C24.4538 15.6637 24.6488 15.9563 24.6488 16.6594V22.0894C24.6488 22.6763 24.9019 22.8713 25.0781 22.8713C25.4306 22.8713 25.7025 22.6763 26.3475 22.0312C27.7329 20.3418 28.8647 18.4595 29.7075 16.4438C29.7936 16.2016 29.9566 15.9943 30.1716 15.8535C30.3866 15.7127 30.6417 15.646 30.8981 15.6637H33.6337C34.4531 15.6637 34.6275 16.0744 34.4531 16.6594C33.4584 18.8877 32.2276 21.0029 30.7819 22.9688C30.4875 23.4188 30.3694 23.6531 30.7819 24.18C31.0537 24.5906 32.0119 25.3913 32.6569 26.1525C33.5942 27.0875 34.3726 28.1692 34.9613 29.355C35.1956 30.1163 34.8037 30.5063 34.0238 30.5063Z" fill="black"/>
</g>
</svg>
